<svg id="Layer_1" data-name="Layer 1" xmlns="http://www.w3.org/2000/svg" xmlns:xlink="http://www.w3.org/1999/xlink" viewBox="0 0 43.36 43.36"><defs><style>.cls-1{fill:#e71d2b;}.cls-2{fill:url(#radial-gradient);}</style><radialGradient id="radial-gradient" cx="-1037.85" cy="515.57" r="1" gradientTransform="matrix(-6.38, -17.83, 21.1, -7.55, -17471.87, -14580.56)" gradientUnits="userSpaceOnUse"><stop offset="0" stop-color="#090909"/><stop offset="1" stop-color="#242424"/></radialGradient></defs><circle class="cls-1" cx="21.68" cy="21.68" r="20"/><path class="cls-2" d="M24,11.75l-6.4,7.05a4.5,4.5,0,0,0-1.1,3.07,4.5,4.5,0,0,0,1.1,3.07L24,32.15a.83.83,0,0,0,1.4-.31,2.3,2.3,0,0,0-.2-2.14l-6.4-7.06a.9.9,0,0,1-.3-.62.88.88,0,0,1,.3-.61l6.4-7.06a2.3,2.3,0,0,0,.2-2.14.87.87,0,0,0-.8-.62A.86.86,0,0,0,24,11.75Z"/></svg>